<?xml version="1.0" standalone="no"?><!DOCTYPE svg PUBLIC "-//W3C//DTD SVG 1.1//EN" "http://www.w3.org/Graphics/SVG/1.1/DTD/svg11.dtd"><svg t="1729062511191" class="icon" viewBox="0 0 1024 1024" version="1.1" xmlns="http://www.w3.org/2000/svg" p-id="9584" xmlns:xlink="http://www.w3.org/1999/xlink" width="200" height="200"><path d="M729.258667 513.536L563.2 472.007111V256a51.2 51.2 0 1 0-102.4 0V512a51.2 51.2 0 0 0 38.741333 49.664l204.8 51.2 2.56 0.625778a51.2 51.2 0 1 0 22.357334-99.953778M512 921.6c-225.848889 0-409.6-183.751111-409.6-409.6S286.151111 102.4 512 102.4s409.6 183.751111 409.6 409.6-183.751111 409.6-409.6 409.6M512 0C229.660444 0 0 229.717333 0 512s229.660444 512 512 512 512-229.717333 512-512-229.660444-512-512-512" fill="#3B74FF" p-id="9585"></path></svg>