<?xml version="1.0" standalone="no"?><!DOCTYPE svg PUBLIC "-//W3C//DTD SVG 1.1//EN" "http://www.w3.org/Graphics/SVG/1.1/DTD/svg11.dtd"><svg t="1729062676331" class="icon" viewBox="0 0 1024 1024" version="1.1" xmlns="http://www.w3.org/2000/svg" p-id="30896" xmlns:xlink="http://www.w3.org/1999/xlink" width="200" height="200"><path d="M234.788571 634.977524A118.101333 118.101333 0 0 1 232.448 633.904762h-27.794286c-1.414095 2.925714-4.534857 2.730667-7.021714 3.559619-35.498667 11.410286-57.295238 48.030476-49.883429 83.870476 7.801905 38.034286 42.081524 62.756571 80.457143 58.368 29.744762-3.413333 52.906667-23.405714 61.586286-52.809143a71.192381 71.192381 0 0 0-5.12-52.175238L388.291048 536.380952a76.995048 76.995048 0 0 0 29.793523-5.363809l119.612953 65.243428a72.801524 72.801524 0 0 0 80.603428 85.918477c29.744762-3.413333 52.906667-23.405714 61.586286-52.809143 5.753905-19.504762 2.340571-40.472381-8.192-57.685334l121.222095-182.515809c6.582857 1.072762 13.458286 1.219048 20.48 0.438857 29.744762-3.413333 52.857905-23.405714 61.537524-52.809143 8.094476-27.257905-1.80419-57.392762-24.039619-76.214857-9.99619-8.387048-22.040381-11.556571-33.304381-16.774095h-27.794286c-1.414095 2.925714-4.534857 2.730667-7.021714 3.559619-35.498667 11.410286-57.295238 48.030476-49.883428 83.870476 1.560381 7.753143 4.242286 14.921143 7.801904 21.455238L618.73981 536.380952h-23.990858c-1.365333 2.925714-4.486095 2.730667-6.972952 3.559619-3.705905 1.219048-7.314286 2.681905-10.727619 4.388572L461.04381 481.084952c7.070476-26.721524-2.925714-55.832381-24.576-74.215619-9.99619-8.387048-22.040381-11.556571-33.304381-16.774095h-27.794286c-1.414095 2.925714-4.534857 2.730667-7.021714 3.559619-35.498667 11.410286-57.295238 48.030476-49.883429 83.870476 2.194286 10.873905 6.582857 20.626286 12.629333 28.91581l-96.256 128.536381zM512 0C794.770286 0 1024 229.278476 1024 512.048762 1024 794.86781 794.624 1024 511.951238 1024S0 794.819048 0 512.048762C0 229.229714 229.180952 0 511.951238 0z" fill="#498DFF" p-id="30897"></path></svg>