<?xml version="1.0" standalone="no"?><!DOCTYPE svg PUBLIC "-//W3C//DTD SVG 1.1//EN" "http://www.w3.org/Graphics/SVG/1.1/DTD/svg11.dtd"><svg t="1729062637315" class="icon" viewBox="0 0 1024 1024" version="1.1" xmlns="http://www.w3.org/2000/svg" p-id="27291" xmlns:xlink="http://www.w3.org/1999/xlink" width="200" height="200"><path d="M512 512m-512 0a512 512 0 1 0 1024 0 512 512 0 1 0-1024 0Z" fill="#FA4852" p-id="27292"></path><path d="M512 170.666667a341.333333 341.333333 0 0 1 285.013333 529.066666l23.893334 71.68a31.146667 31.146667 0 0 1-5.973334 30.293334 31.146667 31.146667 0 0 1-29.44 10.24l-82.773333-16.64-20.053333 12.373333A341.333333 341.333333 0 1 1 512 170.666667z m-27.306667 294.4a54.186667 54.186667 0 1 0 54.613334 0 54.613333 54.613333 0 0 0-54.613334 0z m205.653334-7.253334A54.186667 54.186667 0 1 0 744.533333 512a54.186667 54.186667 0 0 0-54.186666-54.186667z m-384 7.253334a54.613333 54.613333 0 0 0 0 93.866666 53.333333 53.333333 0 0 0 54.186666 0 54.186667 54.186667 0 0 0 0-93.866666 53.333333 53.333333 0 0 0-54.186666 0z" fill="#FFFFFF" p-id="27293"></path></svg>