<?xml version="1.0" standalone="no"?><!DOCTYPE svg PUBLIC "-//W3C//DTD SVG 1.1//EN" "http://www.w3.org/Graphics/SVG/1.1/DTD/svg11.dtd"><svg t="1729062539270" class="icon" viewBox="0 0 1024 1024" version="1.1" xmlns="http://www.w3.org/2000/svg" p-id="13156" xmlns:xlink="http://www.w3.org/1999/xlink" width="200" height="200"><path d="M512 1024c282.766222 0 512-229.233778 512-512S794.766222 0 512 0 0 229.233778 0 512s229.233778 512 512 512z m-0.398222-349.923556c-101.404444-0.056889-197.916444-42.780444-265.102222-117.361777a72.931556 72.931556 0 0 1 0-98.076445C313.685333 384.028444 410.225778 341.333333 511.601778 341.333333c101.432889 0 197.973333 42.752 265.130666 117.361778 25.173333 27.960889 25.201778 69.973333 0.056889 97.991111-67.214222 74.581333-163.754667 117.304889-265.187555 117.390222z m0-88.547555c44.373333-0.085333 80.270222-35.356444 80.327111-78.904889 0-43.548444-36.010667-78.848-80.355556-78.819556-44.373333 0-80.327111 35.328-80.298666 78.876445 0 43.548444 35.953778 78.848 80.327111 78.848z m0-107.235556c15.928889 0 28.871111 12.686222 28.871111 28.330667a28.387556 28.387556 0 0 1-17.834667 26.254222 29.297778 29.297778 0 0 1-31.488-6.144 27.989333 27.989333 0 0 1-6.257778-30.947555c4.465778-10.609778 15.018667-17.521778 26.709334-17.493334z" fill="#498AE6" p-id="13157"></path></svg>