<?xml version="1.0" standalone="no"?><!DOCTYPE svg PUBLIC "-//W3C//DTD SVG 1.1//EN" "http://www.w3.org/Graphics/SVG/1.1/DTD/svg11.dtd"><svg t="1729062733238" class="icon" viewBox="0 0 1024 1024" version="1.1" xmlns="http://www.w3.org/2000/svg" p-id="37070" xmlns:xlink="http://www.w3.org/1999/xlink" width="200" height="200"><path d="M512 1024C229.226667 1024 0 794.773333 0 512S229.226667 0 512 0s512 229.226667 512 512-229.226667 512-512 512zM298.666667 354.112v327.786667c0 18.816 15.210667 34.112 33.984 34.112h273.365333c18.88 0 33.984-15.274667 33.984-34.112V354.112c0-18.837333-15.210667-34.112-33.984-34.112H332.650667c-18.88 0-33.984 15.274667-33.984 34.112z m59.733333 129.450667h221.866667v43.050666H358.4v-43.050666z m0-86.08h221.866667v43.050666H358.4v-43.050666z m0 172.16h115.2v43.050666h-115.2v-43.029333z m145.066667 21.034666a21.184 21.184 0 0 1 42.325333 0v1.002667a21.184 21.184 0 0 1-42.325333 0v-1.002667z m162.133333-192.426666v307.968h40.170667A19.690667 19.690667 0 0 0 725.333333 686.506667V417.984a19.669333 19.669333 0 0 0-19.562666-19.712H665.6z" fill="#FF9326" p-id="37071"></path></svg>